<svg width="120" height="120" viewBox="0 0 120 120" fill="none" xmlns="http://www.w3.org/2000/svg">
<g clip-path="url(#clip0_1496_12767)">
<path d="M60 0.9375C55.7353 0.9375 51.5665 2.20212 48.0205 4.57144C44.4746 6.94075 41.7109 10.3084 40.0789 14.2484C38.4468 18.1884 38.0198 22.5239 38.8518 26.7066C39.6838 30.8894 41.7375 34.7314 44.753 37.747C47.7686 40.7626 51.6107 42.8162 55.7934 43.6482C59.9761 44.4802 64.3116 44.0532 68.2516 42.4212C72.1917 40.7891 75.5593 38.0254 77.9286 34.4795C80.2979 30.9335 81.5625 26.7647 81.5625 22.5C81.5625 16.7813 79.2908 11.2968 75.247 7.25301C71.2032 3.20926 65.7187 0.9375 60 0.9375ZM70.05 31.2C70.1862 31.3311 70.2795 31.5003 70.3178 31.6855C70.3561 31.8706 70.3375 32.063 70.2645 32.2373C70.1915 32.4117 70.0675 32.5599 69.9088 32.6626C69.75 32.7652 69.564 32.8175 69.375 32.8125C68.8125 32.8125 69.4313 33.2625 60 23.8312C50.625 33.2719 51.1875 32.8125 50.625 32.8125C50.432 32.8219 50.2407 32.7714 50.0775 32.668C49.9143 32.5645 49.787 32.4131 49.7131 32.2346C49.6392 32.056 49.6223 31.8589 49.6647 31.6704C49.7071 31.4818 49.8068 31.311 49.95 31.1812L58.65 22.5L49.95 13.8C49.771 13.621 49.6704 13.3782 49.6704 13.125C49.6704 12.8718 49.771 12.629 49.95 12.45C50.129 12.271 50.3718 12.1704 50.625 12.1704C50.8782 12.1704 51.121 12.271 51.3 12.45L60 21.15L68.7 12.45C68.879 12.271 69.1218 12.1704 69.375 12.1704C69.6282 12.1704 69.871 12.271 70.05 12.45C70.229 12.629 70.3296 12.8718 70.3296 13.125C70.3296 13.3782 70.229 13.621 70.05 13.8L61.35 22.5L70.05 31.2Z" fill="#E1E1E1" fill-opacity="0.882353"/>
<path d="M7.04102 63.75L17.3535 115.612C17.5488 116.587 18.0761 117.463 18.8454 118.093C19.6147 118.722 20.5785 119.065 21.5723 119.062H98.3348C99.3274 119.064 100.29 118.721 101.058 118.092C101.825 117.462 102.351 116.586 102.544 115.612L112.96 63.75H7.04102ZM35.8879 104.184L32.1379 76.0594C32.1056 75.8107 32.1733 75.5594 32.3263 75.3608C32.4793 75.1621 32.7049 75.0323 32.9535 75C33.2022 74.9677 33.4535 75.0354 33.6521 75.1884C33.8508 75.3414 33.9806 75.567 34.0129 75.8156L37.7629 103.941C37.7952 104.189 37.7274 104.441 37.5745 104.639C37.4215 104.838 37.1959 104.968 36.9473 105C36.6986 105.032 36.4473 104.965 36.2487 104.812C36.05 104.659 35.9202 104.433 35.8879 104.184ZM60.9379 104.062C60.9379 104.311 60.8391 104.55 60.6633 104.725C60.4875 104.901 60.249 105 60.0004 105C59.7517 105 59.5133 104.901 59.3375 104.725C59.1617 104.55 59.0629 104.311 59.0629 104.062V75.9375C59.0629 75.6889 59.1617 75.4504 59.3375 75.2746C59.5133 75.0988 59.7517 75 60.0004 75C60.249 75 60.4875 75.0988 60.6633 75.2746C60.8391 75.4504 60.9379 75.6889 60.9379 75.9375V104.062ZM84.3754 104.184C84.3431 104.433 84.2133 104.659 84.0146 104.812C83.8159 104.965 83.5647 105.032 83.316 105C83.0674 104.968 82.8418 104.838 82.6888 104.639C82.5358 104.441 82.4681 104.189 82.5004 103.941L86.2504 75.8156C86.2827 75.567 86.4125 75.3414 86.6112 75.1884C86.8098 75.0354 87.0611 74.9677 87.3098 75C87.5584 75.0323 87.784 75.1621 87.937 75.3608C88.0899 75.5594 88.1577 75.8107 88.1254 76.0594L84.3754 104.184Z" fill="#E1E1E1" fill-opacity="0.882353"/>
<path d="M116.916 48.75H94.1437L89.8688 56.3437C89.4994 56.9852 89.0073 57.5476 88.4207 57.9988C87.834 58.4501 87.1641 58.7814 86.4494 58.9738C85.7347 59.1662 84.9891 59.2159 84.2551 59.1201C83.5212 59.0244 82.8133 58.785 82.1719 58.4156C81.5304 58.0463 80.9681 57.5542 80.5168 56.9675C80.0655 56.3808 79.7343 55.711 79.5419 54.9963C79.3495 54.2816 79.2997 53.536 79.3955 52.802C79.4913 52.0681 79.7307 51.3602 80.1 50.7187L81.2156 48.75H37.8469L38.9719 50.7469C39.7178 52.0423 39.9186 53.581 39.53 55.0244C39.1415 56.4679 38.1954 57.6978 36.9 58.4438C35.6046 59.1897 34.0659 59.3904 32.6225 59.0019C31.179 58.6133 29.949 57.6673 29.2031 56.3719L24.9094 48.75H3.08437C2.51575 48.7525 1.97111 48.9794 1.56903 49.3815C1.16695 49.7836 0.939967 50.3282 0.9375 50.8969V59.7281C0.939967 60.2968 1.16695 60.8414 1.56903 61.2435C1.97111 61.6456 2.51575 61.8725 3.08437 61.875H116.916C117.484 61.8725 118.029 61.6456 118.431 61.2435C118.833 60.8414 119.06 60.2968 119.062 59.7281V50.8969C119.06 50.3282 118.833 49.7836 118.431 49.3815C118.029 48.9794 117.484 48.7525 116.916 48.75Z" fill="#E1E1E1" fill-opacity="0.882353"/>
<path d="M30.8243 55.425C31.3216 56.2891 32.1418 56.9202 33.1043 57.1795C34.0669 57.4388 35.0931 57.3051 35.9571 56.8078C36.8212 56.3106 37.4523 55.4904 37.7116 54.5278C37.9709 53.5652 37.8372 52.5391 37.34 51.675L16.3868 14.4844C15.8895 13.6216 15.0699 12.9917 14.1082 12.7333C13.1465 12.4748 12.1215 12.609 11.2587 13.1063C10.3959 13.6036 9.76602 14.4232 9.50757 15.3849C9.24913 16.3466 9.3833 17.3716 9.88058 18.2344L30.8243 55.425Z" fill="#E1E1E1" fill-opacity="0.882353"/>
<path d="M83.1005 56.8032C83.5279 57.0515 84.0002 57.2129 84.4903 57.278C84.9803 57.3431 85.4784 57.3107 85.9558 57.1826C86.4333 57.0545 86.8807 56.8333 87.2724 56.5317C87.664 56.23 87.9922 55.854 88.238 55.425L109.182 18.2344C109.428 17.8072 109.588 17.3357 109.652 16.8468C109.716 16.3578 109.683 15.8611 109.555 15.3849C109.427 14.9087 109.206 14.4624 108.906 14.0714C108.605 13.6805 108.231 13.3525 107.804 13.1063C107.376 12.8601 106.905 12.7004 106.416 12.6364C105.927 12.5724 105.43 12.6053 104.954 12.7333C104.478 12.8612 104.032 13.0818 103.641 13.3822C103.25 13.6827 102.922 14.0572 102.675 14.4844L81.7223 51.6657C81.474 52.0931 81.3126 52.5654 81.2475 53.0555C81.1824 53.5455 81.2148 54.0436 81.3429 54.521C81.471 54.9985 81.6922 55.4459 81.9938 55.8376C82.2955 56.2292 82.6715 56.5574 83.1005 56.8032Z" fill="#E1E1E1" fill-opacity="0.882353"/>
</g>
<defs>
<clipPath id="clip0_1496_12767">
<rect width="120" height="120" fill="white"/>
</clipPath>
</defs>
</svg>
